<?xml version="1.0" encoding="utf-8"?>
<!-- Generator: Adobe Illustrator 24.0.1, SVG Export Plug-In . SVG Version: 6.00 Build 0)  -->
<svg version="1.1"
	 id="svg2" inkscape:version="0.91 r13725" sodipodi:docname="logo.svg" xmlns:cc="http://creativecommons.org/ns#" xmlns:dc="http://purl.org/dc/elements/1.1/" xmlns:inkscape="http://www.inkscape.org/namespaces/inkscape" xmlns:rdf="http://www.w3.org/1999/02/22-rdf-syntax-ns#" xmlns:sodipodi="http://sodipodi.sourceforge.net/DTD/sodipodi-0.dtd" xmlns:svg="http://www.w3.org/2000/svg"
	 xmlns="http://www.w3.org/2000/svg" xmlns:xlink="http://www.w3.org/1999/xlink" x="0px" y="0px" viewBox="0 0 319.7 337.6"
	 style="enable-background:new 0 0 319.7 337.6;" xml:space="preserve">
<style type="text/css">
	.st0{fill-rule:evenodd;clip-rule:evenodd;}
</style>
<sodipodi:namedview  bordercolor="#666666" borderopacity="1" fit-margin-bottom="0" fit-margin-left="0" fit-margin-right="0" fit-margin-top="0" gridtolerance="10" guidetolerance="10" id="namedview41" inkscape:current-layer="svg2" inkscape:cx="113.7648" inkscape:cy="124.5702" inkscape:pageopacity="0" inkscape:pageshadow="2" inkscape:window-height="757" inkscape:window-maximized="1" inkscape:window-width="1440" inkscape:window-x="0" inkscape:window-y="1" inkscape:zoom="0.91716779" objecttolerance="10" pagecolor="#ffffff" showgrid="false">
	</sodipodi:namedview>
<title  id="title4">Page 1</title>
<desc  id="desc6">Created with Sketch.</desc>
<path id="Fill-27" inkscape:connector-curvature="0" class="st0" d="M42.5,0C65.9,0,85,19,85,42.5S65.9,85,42.5,85
	C19,85,0,66,0,42.5S19,0,42.5,0"/>
<polygon id="Fill-28" class="st0" points="8.5,110.6 8.5,331.7 76.5,331.7 76.5,110.6 "/>
<path id="Fill-29" inkscape:connector-curvature="0" class="st0" d="M208.4,192h-43.7c4.2-17.2,18.2-32.8,43.7-32.8
	s39.5,15.6,43.7,32.8H208.4z M319.7,221.8l0-1.2c-0.2-64.1-43.1-116-113.1-116c-70,0-112.8,51.9-113.1,116l0,1.2
	c0,70.4,54.5,115.8,122.6,115.8c35.4,0,71.3-15.9,93.1-43.6l-46.4-34c-12.2,14.3-27.7,25.8-49.9,25.8c-26.3,0-45.9-16.8-51.3-42.7
	h156.2C319,236.3,319.7,229.2,319.7,221.8L319.7,221.8L319.7,221.8z"/>
</svg>
